<?xml version="1.0" encoding="UTF-8"?>
<!--Generator: Apple Native CoreSVG 232.5-->
<!DOCTYPE svg
PUBLIC "-//W3C//DTD SVG 1.1//EN"
       "http://www.w3.org/Graphics/SVG/1.1/DTD/svg11.dtd">
<svg version="1.1" xmlns="http://www.w3.org/2000/svg" xmlns:xlink="http://www.w3.org/1999/xlink" width="3300" height="2200">
 <!--glyph: "", point size: 100.0, font version: "19.2d2e1", template writer version: "128"-->
 <style>.monochrome-0 {-sfsymbols-motion-group:3}
.monochrome-1 {opacity:0.0;-sfsymbols-clear-behind:true;-sfsymbols-motion-group:2}
.monochrome-2 {-sfsymbols-motion-group:1}
.monochrome-3 {opacity:0.0;-sfsymbols-clear-behind:true;-sfsymbols-motion-group:0}

.multicolor-0:tintColor {-sfsymbols-motion-group:3}
.multicolor-1:tintColor {opacity:0.0;-sfsymbols-clear-behind:true;-sfsymbols-motion-group:2}
.multicolor-2:labelColor {-sfsymbols-motion-group:1}
.multicolor-3:tintColor {opacity:0.0;-sfsymbols-clear-behind:true;-sfsymbols-motion-group:0}

.hierarchical-0:primary {-sfsymbols-motion-group:3}
.hierarchical-1:primary {opacity:0.0;-sfsymbols-clear-behind:true;-sfsymbols-motion-group:2}
.hierarchical-2:primary {-sfsymbols-motion-group:1}
.hierarchical-3:primary {opacity:0.0;-sfsymbols-clear-behind:true;-sfsymbols-motion-group:0}

.SFSymbolsPreviewWireframe {fill:none;opacity:1.0;stroke:black;stroke-width:0.5}
</style>
 <g id="Notes">
  <rect height="2200" id="artboard" style="fill:white;opacity:1" width="3300" x="0" y="0"/>
  <line style="fill:none;stroke:black;opacity:1;stroke-width:0.5;" x1="263" x2="3036" y1="292" y2="292"/>
  <text style="stroke:none;fill:black;font-family:sans-serif;font-size:13;font-weight:bold;" transform="matrix(1 0 0 1 263 322)">Weight/Scale Variations</text>
  <text style="stroke:none;fill:black;font-family:sans-serif;font-size:13;text-anchor:middle;" transform="matrix(1 0 0 1 559.711 322)">Ultralight</text>
  <text style="stroke:none;fill:black;font-family:sans-serif;font-size:13;text-anchor:middle;" transform="matrix(1 0 0 1 856.422 322)">Thin</text>
  <text style="stroke:none;fill:black;font-family:sans-serif;font-size:13;text-anchor:middle;" transform="matrix(1 0 0 1 1153.13 322)">Light</text>
  <text style="stroke:none;fill:black;font-family:sans-serif;font-size:13;text-anchor:middle;" transform="matrix(1 0 0 1 1449.84 322)">Regular</text>
  <text style="stroke:none;fill:black;font-family:sans-serif;font-size:13;text-anchor:middle;" transform="matrix(1 0 0 1 1746.56 322)">Medium</text>
  <text style="stroke:none;fill:black;font-family:sans-serif;font-size:13;text-anchor:middle;" transform="matrix(1 0 0 1 2043.27 322)">Semibold</text>
  <text style="stroke:none;fill:black;font-family:sans-serif;font-size:13;text-anchor:middle;" transform="matrix(1 0 0 1 2339.98 322)">Bold</text>
  <text style="stroke:none;fill:black;font-family:sans-serif;font-size:13;text-anchor:middle;" transform="matrix(1 0 0 1 2636.69 322)">Heavy</text>
  <text style="stroke:none;fill:black;font-family:sans-serif;font-size:13;text-anchor:middle;" transform="matrix(1 0 0 1 2933.4 322)">Black</text>
  <line style="fill:none;stroke:black;opacity:1;stroke-width:0.5;" x1="263" x2="3036" y1="1903" y2="1903"/>
  <g transform="matrix(0.2 0 0 0.2 263 1933)">
   <path d="m46.2402 4.15039c21.5332 0 39.4531-17.8711 39.4531-39.4043s-17.9688-39.4043-39.502-39.4043c-21.4844 0-39.3555 17.8711-39.3555 39.4043s17.9199 39.4043 39.4043 39.4043Zm0-7.42188c-17.7246 0-31.8848-14.209-31.8848-31.9824s14.1113-31.9824 31.8359-31.9824c17.7734 0 32.0312 14.209 32.0312 31.9824s-14.209 31.9824-31.9824 31.9824Zm-17.9688-31.9824c0 2.14844 1.51367 3.61328 3.75977 3.61328h10.498v10.5957c0 2.19727 1.46484 3.71094 3.61328 3.71094 2.24609 0 3.71094-1.51367 3.71094-3.71094v-10.5957h10.5957c2.19727 0 3.71094-1.46484 3.71094-3.61328 0-2.19727-1.51367-3.71094-3.71094-3.71094h-10.5957v-10.5469c0-2.24609-1.46484-3.75977-3.71094-3.75977-2.14844 0-3.61328 1.51367-3.61328 3.75977v10.5469h-10.498c-2.24609 0-3.75977 1.51367-3.75977 3.71094Z"/>
  </g>
  <g transform="matrix(0.2 0 0 0.2 281.506 1933)">
   <path d="m58.5449 14.5508c27.2461 0 49.8047-22.6074 49.8047-49.8047 0-27.2461-22.6074-49.8047-49.8535-49.8047-27.1973 0-49.7559 22.5586-49.7559 49.8047 0 27.1973 22.6074 49.8047 49.8047 49.8047Zm0-8.30078c-23.0469 0-41.4551-18.457-41.4551-41.5039s18.3594-41.5039 41.4062-41.5039 41.5527 18.457 41.5527 41.5039-18.457 41.5039-41.5039 41.5039Zm-22.6562-41.5039c0 2.39258 1.66016 4.00391 4.15039 4.00391h14.3555v14.4043c0 2.44141 1.66016 4.15039 4.05273 4.15039 2.44141 0 4.15039-1.66016 4.15039-4.15039v-14.4043h14.4043c2.44141 0 4.15039-1.61133 4.15039-4.00391 0-2.44141-1.70898-4.15039-4.15039-4.15039h-14.4043v-14.3555c0-2.49023-1.70898-4.19922-4.15039-4.19922-2.39258 0-4.05273 1.70898-4.05273 4.19922v14.3555h-14.3555c-2.49023 0-4.15039 1.70898-4.15039 4.15039Z"/>
  </g>
  <g transform="matrix(0.2 0 0 0.2 304.924 1933)">
   <path d="m74.8535 28.3203c34.8145 0 63.623-28.8086 63.623-63.5742 0-34.8145-28.8574-63.623-63.6719-63.623-34.7656 0-63.5254 28.8086-63.5254 63.623 0 34.7656 28.8086 63.5742 63.5742 63.5742Zm0-9.08203c-30.1758 0-54.4434-24.3164-54.4434-54.4922 0-30.2246 24.2188-54.4922 54.3945-54.4922 30.2246 0 54.541 24.2676 54.541 54.4922 0 30.1758-24.2676 54.4922-54.4922 54.4922Zm-28.8574-54.4922c0 2.58789 1.85547 4.39453 4.58984 4.39453h19.7266v19.7754c0 2.68555 1.85547 4.58984 4.44336 4.58984 2.68555 0 4.54102-1.85547 4.54102-4.58984v-19.7754h19.7754c2.68555 0 4.58984-1.80664 4.58984-4.39453 0-2.73438-1.85547-4.58984-4.58984-4.58984h-19.7754v-19.7266c0-2.73438-1.85547-4.63867-4.54102-4.63867-2.58789 0-4.44336 1.9043-4.44336 4.63867v19.7266h-19.7266c-2.73438 0-4.58984 1.85547-4.58984 4.58984Z"/>
  </g>
  <text style="stroke:none;fill:black;font-family:sans-serif;font-size:13;font-weight:bold;" transform="matrix(1 0 0 1 263 1953)">Design Variations</text>
  <text style="stroke:none;fill:black;font-family:sans-serif;font-size:13;" transform="matrix(1 0 0 1 263 1971)">Symbols are supported in up to nine weights and three scales.</text>
  <text style="stroke:none;fill:black;font-family:sans-serif;font-size:13;" transform="matrix(1 0 0 1 263 1989)">For optimal layout with text and other symbols, vertically align</text>
  <text style="stroke:none;fill:black;font-family:sans-serif;font-size:13;" transform="matrix(1 0 0 1 263 2007)">symbols with the adjacent text.</text>
  <line style="fill:none;stroke:#00AEEF;stroke-width:0.5;opacity:1.0;" x1="776" x2="776" y1="1919" y2="1933"/>
  <g transform="matrix(0.2 0 0 0.2 776 1933)">
   <path d="m16.5527 0.78125c2.58789 0 3.85742-0.976562 4.78516-3.71094l6.29883-17.2363h28.8086l6.29883 17.2363c0.927734 2.73438 2.19727 3.71094 4.73633 3.71094 2.58789 0 4.24805-1.5625 4.24805-4.00391 0-0.830078-0.146484-1.61133-0.537109-2.63672l-22.9004-60.9863c-1.12305-2.97852-3.125-4.49219-6.25-4.49219-3.02734 0-5.07812 1.46484-6.15234 4.44336l-22.9004 61.084c-0.390625 1.02539-0.537109 1.80664-0.537109 2.63672 0 2.44141 1.5625 3.95508 4.10156 3.95508Zm13.4766-28.3691 11.8652-32.8613h0.244141l11.8652 32.8613Z"/>
  </g>
  <line style="fill:none;stroke:#00AEEF;stroke-width:0.5;opacity:1.0;" x1="792.836" x2="792.836" y1="1919" y2="1933"/>
  <text style="stroke:none;fill:black;font-family:sans-serif;font-size:13;font-weight:bold;" transform="matrix(1 0 0 1 776 1953)">Margins</text>
  <text style="stroke:none;fill:black;font-family:sans-serif;font-size:13;" transform="matrix(1 0 0 1 776 1971)">Leading and trailing margins on the left and right side of each symbol</text>
  <text style="stroke:none;fill:black;font-family:sans-serif;font-size:13;" transform="matrix(1 0 0 1 776 1989)">can be adjusted by modifying the x-location of the margin guidelines.</text>
  <text style="stroke:none;fill:black;font-family:sans-serif;font-size:13;" transform="matrix(1 0 0 1 776 2007)">Modifications are automatically applied proportionally to all</text>
  <text style="stroke:none;fill:black;font-family:sans-serif;font-size:13;" transform="matrix(1 0 0 1 776 2025)">scales and weights.</text>
  <g transform="matrix(0.2 0 0 0.2 1289 1933)">
   <path d="m14.209 9.32617 8.49609 8.54492c4.29688 4.3457 9.22852 4.05273 13.8672-1.07422l53.4668-58.9355-4.83398-4.88281-53.0762 58.3984c-1.75781 2.00195-3.41797 2.49023-5.76172 0.146484l-5.85938-5.81055c-2.34375-2.29492-1.80664-4.00391 0.195312-5.81055l57.373-54.0039-4.88281-4.83398-57.959 54.4434c-4.93164 4.58984-5.32227 9.47266-1.02539 13.8184Zm32.0801-90.9668c-2.09961 2.05078-2.24609 4.93164-1.07422 6.88477 1.17188 1.80664 3.4668 2.97852 6.68945 2.14844 7.32422-1.70898 14.9414-2.00195 22.0703 2.68555l-2.92969 7.27539c-1.70898 4.15039-0.830078 7.08008 1.85547 9.81445l11.4746 11.5723c2.44141 2.44141 4.49219 2.53906 7.32422 2.05078l5.32227-0.976562 3.32031 3.36914-0.195312 2.7832c-0.195312 2.49023 0.439453 4.39453 2.88086 6.78711l3.80859 3.71094c2.39258 2.39258 5.46875 2.53906 7.8125 0.195312l14.5508-14.5996c2.34375-2.34375 2.24609-5.32227-0.146484-7.71484l-3.85742-3.80859c-2.39258-2.39258-4.24805-3.17383-6.64062-2.97852l-2.88086 0.244141-3.22266-3.17383 1.2207-5.61523c0.634766-2.83203-0.146484-5.0293-3.07617-7.95898l-10.9863-10.9375c-16.6992-16.6016-38.8672-16.2109-53.3203-1.75781Zm7.4707 1.85547c12.1582-8.88672 28.6133-7.37305 39.7461 3.75977l12.1582 12.0605c1.17188 1.17188 1.36719 2.09961 1.02539 3.80859l-1.61133 7.42188 7.51953 7.42188 4.93164-0.292969c1.26953-0.0488281 1.66016 0.0488281 2.63672 1.02539l2.88086 2.88086-12.207 12.207-2.88086-2.88086c-0.976562-0.976562-1.12305-1.36719-1.07422-2.68555l0.341797-4.88281-7.4707-7.42188-7.61719 1.26953c-1.61133 0.341797-2.34375 0.195312-3.56445-0.976562l-10.0098-10.0098c-1.26953-1.17188-1.41602-2.00195-0.634766-3.85742l4.39453-10.4492c-7.8125-7.27539-17.9688-10.4004-28.125-7.42188-0.78125 0.195312-1.07422-0.439453-0.439453-0.976562Z"/>
  </g>
  <text style="stroke:none;fill:black;font-family:sans-serif;font-size:13;font-weight:bold;" transform="matrix(1 0 0 1 1289 1953)">Exporting</text>
  <text style="stroke:none;fill:black;font-family:sans-serif;font-size:13;" transform="matrix(1 0 0 1 1289 1971)">Symbols should be outlined when exporting to ensure the</text>
  <text style="stroke:none;fill:black;font-family:sans-serif;font-size:13;" transform="matrix(1 0 0 1 1289 1989)">design is preserved when submitting to Xcode.</text>
  <text id="template-version" style="stroke:none;fill:black;font-family:sans-serif;font-size:13;text-anchor:end;" transform="matrix(1 0 0 1 3036 1933)">Template v.5.0</text>
  <text style="stroke:none;fill:black;font-family:sans-serif;font-size:13;text-anchor:end;" transform="matrix(1 0 0 1 3036 1951)">Requires Xcode 15 or greater</text>
  <text id="descriptive-name" style="stroke:none;fill:black;font-family:sans-serif;font-size:13;text-anchor:end;" transform="matrix(1 0 0 1 3036 1969)">Generated from archivebox.plus</text>
  <text style="stroke:none;fill:black;font-family:sans-serif;font-size:13;text-anchor:end;" transform="matrix(1 0 0 1 3036 1987)">Typeset at 100.0 points</text>
  <text style="stroke:none;fill:black;font-family:sans-serif;font-size:13;" transform="matrix(1 0 0 1 263 726)">Small</text>
  <text style="stroke:none;fill:black;font-family:sans-serif;font-size:13;" transform="matrix(1 0 0 1 263 1156)">Medium</text>
  <text style="stroke:none;fill:black;font-family:sans-serif;font-size:13;" transform="matrix(1 0 0 1 263 1586)">Large</text>
 </g>
 <g id="Guides">
  <g id="H-reference" style="fill:#27AAE1;stroke:none;" transform="matrix(1 0 0 1 339 696)">
   <path d="M0.993654 0L3.63775 0L29.3281-67.1323L30.0303-67.1323L30.0303-70.459L28.1226-70.459ZM11.6885-24.4799L46.9815-24.4799L46.2315-26.7285L12.4385-26.7285ZM55.1196 0L57.7637 0L30.6382-70.459L29.4326-70.459L29.4326-67.1323Z"/>
  </g>
  <line id="Baseline-S" style="fill:none;stroke:#27AAE1;opacity:1;stroke-width:0.5;" x1="263" x2="3036" y1="696" y2="696"/>
  <line id="Capline-S" style="fill:none;stroke:#27AAE1;opacity:1;stroke-width:0.5;" x1="263" x2="3036" y1="625.541" y2="625.541"/>
  <g id="H-reference" style="fill:#27AAE1;stroke:none;" transform="matrix(1 0 0 1 339 1126)">
   <path d="M0.993654 0L3.63775 0L29.3281-67.1323L30.0303-67.1323L30.0303-70.459L28.1226-70.459ZM11.6885-24.4799L46.9815-24.4799L46.2315-26.7285L12.4385-26.7285ZM55.1196 0L57.7637 0L30.6382-70.459L29.4326-70.459L29.4326-67.1323Z"/>
  </g>
  <line id="Baseline-M" style="fill:none;stroke:#27AAE1;opacity:1;stroke-width:0.5;" x1="263" x2="3036" y1="1126" y2="1126"/>
  <line id="Capline-M" style="fill:none;stroke:#27AAE1;opacity:1;stroke-width:0.5;" x1="263" x2="3036" y1="1055.54" y2="1055.54"/>
  <g id="H-reference" style="fill:#27AAE1;stroke:none;" transform="matrix(1 0 0 1 339 1556)">
   <path d="M0.993654 0L3.63775 0L29.3281-67.1323L30.0303-67.1323L30.0303-70.459L28.1226-70.459ZM11.6885-24.4799L46.9815-24.4799L46.2315-26.7285L12.4385-26.7285ZM55.1196 0L57.7637 0L30.6382-70.459L29.4326-70.459L29.4326-67.1323Z"/>
  </g>
  <line id="Baseline-L" style="fill:none;stroke:#27AAE1;opacity:1;stroke-width:0.5;" x1="263" x2="3036" y1="1556" y2="1556"/>
  <line id="Capline-L" style="fill:none;stroke:#27AAE1;opacity:1;stroke-width:0.5;" x1="263" x2="3036" y1="1485.54" y2="1485.54"/>
  <line id="left-margin-Ultralight-S" style="fill:none;stroke:#FF3B30;stroke-width:0.5;opacity:1.0;" x1="513.188" x2="513.188" y1="600.785" y2="720.121"/>
  <line id="right-margin-Ultralight-S" style="fill:none;stroke:#00AEEF;stroke-width:0.5;opacity:1.0;" x1="606.235" x2="606.235" y1="600.785" y2="720.121"/>
  <line id="left-margin-Regular-S" style="fill:none;stroke:#FF3B30;stroke-width:0.5;opacity:1.0;" x1="1401.5" x2="1401.5" y1="600.785" y2="720.121"/>
  <line id="right-margin-Regular-S" style="fill:none;stroke:#00AEEF;stroke-width:0.5;opacity:1.0;" x1="1498.18" x2="1498.18" y1="600.785" y2="720.121"/>
  <line id="left-margin-Black-S" style="fill:none;stroke:#FF3B30;stroke-width:0.5;opacity:1.0;" x1="2882.03" x2="2882.03" y1="600.785" y2="720.121"/>
  <line id="right-margin-Black-S" style="fill:none;stroke:#00AEEF;stroke-width:0.5;opacity:1.0;" x1="2984.77" x2="2984.77" y1="600.785" y2="720.121"/>
 </g>
 <g id="Symbols">
  <g id="Black-S" transform="matrix(1 0 0 1 2882.03 696)">
   <path class="monochrome-0 multicolor-0:tintColor hierarchical-0:primary SFSymbolsPreviewWireframe" d="M30.42 2.93L72.31 2.93C81.89 2.93 87.55-2.734 87.55-12.305L87.55-50.977L73.39-50.977L73.39-14.551C73.39-12.109 72.31-11.231 70.07-11.231L32.67-11.231C30.42-11.231 29.35-12.109 29.35-14.551L29.35-50.977L15.19-50.977L15.19-12.305C15.19-2.734 20.85 2.93 30.42 2.93ZM40.43-26.709L62.35-26.709C65.14-26.709 67.29-28.857 67.29-31.69L67.29-32.959C67.29-35.791 65.19-37.891 62.35-37.891L40.43-37.891C37.6-37.891 35.5-35.791 35.5-32.959L35.5-31.69C35.5-28.857 37.65-26.709 40.43-26.709ZM22.56-43.262L80.22-43.262C87.84-43.262 92.97-48.486 92.97-56.055L92.97-60.547C92.97-68.115 87.84-73.34 80.22-73.34L22.56-73.34C14.99-73.34 9.77-68.115 9.77-60.547L9.77-56.055C9.77-48.486 14.99-43.262 22.56-43.262ZM23.54-55.762C22.56-55.762 21.78-56.543 21.78-57.52L21.78-59.082C21.78-60.059 22.56-60.84 23.54-60.84L79.2-60.84C80.18-60.84 80.96-60.059 80.96-59.082L80.96-57.52C80.96-56.543 80.18-55.762 79.2-55.762L23.54-55.762Z"/>
   <path class="monochrome-1 multicolor-1:tintColor hierarchical-1:primary SFSymbolsPreviewWireframe" d="M22.47 20.361C37.41 20.361 49.76 7.959 49.76-6.982C49.76-21.924 37.41-34.229 22.47-34.229C7.53-34.229-4.83-21.924-4.83-6.982C-4.83 7.959 7.53 20.361 22.47 20.361Z"/>
   <path class="monochrome-2 multicolor-2:labelColor hierarchical-2:primary SFSymbolsPreviewWireframe" d="M22.47 14.014C33.94 14.014 43.41 4.443 43.41-6.982C43.41-18.408 33.94-27.881 22.47-27.881C10.99-27.881 1.52-18.408 1.52-6.982C1.52 4.443 10.99 14.014 22.47 14.014Z"/>
   <path class="monochrome-3 multicolor-3:tintColor hierarchical-3:primary SFSymbolsPreviewWireframe" d="M22.47 7.08C20.12 7.08 18.56 5.518 18.56 3.223L18.56-3.027L12.41-3.027C10.11-3.027 8.5-4.59 8.5-6.934C8.5-9.277 10.02-10.84 12.41-10.84L18.56-10.84L18.56-16.943C18.56-19.238 20.12-20.85 22.47-20.85C24.81-20.85 26.37-19.336 26.37-16.943L26.37-10.84L32.57-10.84C34.87-10.84 36.43-9.277 36.43-6.934C36.43-4.59 34.87-3.027 32.57-3.027L26.37-3.027L26.37 3.223C26.37 5.518 24.81 7.08 22.47 7.08Z"/>
  </g>
  <g id="Regular-S" transform="matrix(1 0 0 1 1401.5 696)">
   <path class="monochrome-0 multicolor-0:tintColor hierarchical-0:primary SFSymbolsPreviewWireframe" d="M27.49 0.391L69.19 0.391C76.9 0.391 81.05-3.613 81.05-11.328L81.05-52.1L74.02-52.1L74.02-10.986C74.02-7.91 72.31-6.201 69.29-6.201L27.39-6.201C24.37-6.201 22.61-7.91 22.61-10.986L22.61-52.1L15.58-52.1L15.58-11.328C15.58-3.613 19.73 0.391 27.49 0.391ZM35.89-33.252L60.84-33.252C62.5-33.252 63.77-34.473 63.77-36.23L63.77-37.5C63.77-39.258 62.5-40.43 60.84-40.43L35.89-40.43C34.18-40.43 32.96-39.258 32.96-37.5L32.96-36.23C32.96-34.473 34.18-33.252 35.89-33.252ZM17.48-48.828L79.2-48.828C84.23-48.828 86.91-51.953 86.91-56.934L86.91-62.695C86.91-67.676 84.23-70.801 79.2-70.801L17.48-70.801C12.74-70.801 9.77-67.676 9.77-62.695L9.77-56.934C9.77-51.953 12.45-48.828 17.48-48.828ZM19.38-55.371C17.48-55.371 16.8-56.055 16.8-57.959L16.8-61.621C16.8-63.525 17.48-64.209 19.38-64.209L77.34-64.209C79.25-64.209 79.83-63.525 79.83-61.621L79.83-57.959C79.83-56.055 79.25-55.371 77.34-55.371L19.38-55.371Z"/>
   <path class="monochrome-1 multicolor-1:tintColor hierarchical-1:primary SFSymbolsPreviewWireframe" d="M19.34 18.75C33.16 18.75 44.73 7.178 44.73-6.689C44.73-20.605 33.26-32.08 19.34-32.08C5.43-32.08-6.05-20.605-6.05-6.689C-6.05 7.324 5.38 18.75 19.34 18.75Z"/>
   <path class="monochrome-2 multicolor-2:labelColor hierarchical-2:primary SFSymbolsPreviewWireframe" d="M19.34 13.037C29.99 13.037 39.02 4.102 39.02-6.689C39.02-17.48 30.13-26.367 19.34-26.367C8.55-26.367-0.34-17.48-0.34-6.689C-0.34 4.15 8.55 13.037 19.34 13.037Z"/>
   <path class="monochrome-3 multicolor-3:tintColor hierarchical-3:primary SFSymbolsPreviewWireframe" d="M19.34 5.566C17.83 5.566 16.8 4.541 16.8 3.027L16.8-4.15L9.62-4.15C8.11-4.15 7.09-5.127 7.09-6.689C7.09-8.203 8.11-9.18 9.62-9.18L16.8-9.18L16.8-16.357C16.8-17.871 17.83-18.896 19.34-18.896C20.85-18.896 21.88-17.871 21.88-16.357L21.88-9.18L29.06-9.18C30.57-9.18 31.6-8.203 31.6-6.689C31.6-5.127 30.57-4.15 29.06-4.15L21.88-4.15L21.88 3.027C21.88 4.541 20.85 5.566 19.34 5.566Z"/>
  </g>
  <g id="Ultralight-S" transform="matrix(1 0 0 1 513.188 696)">
   <path class="monochrome-0 multicolor-0:tintColor hierarchical-0:primary SFSymbolsPreviewWireframe" d="M24.902-1.562L68.19-1.562C74.679-1.562 78.148-5.112 78.148-11.51L78.148-52.781L75.931-52.781L75.931-11.577C75.931-6.412 73.041-3.749 68.061-3.749L24.986-3.749C19.824-3.749 17.113-6.412 17.113-11.577L17.113-52.781L14.94-52.781L14.94-11.51C14.94-5.021 18.364-1.562 24.902-1.562ZM33.209-37.021L59.886-37.021C61.092-37.021 61.726-37.788 61.726-39.001L61.726-39.998C61.726-41.256 61.092-42.019 59.886-42.019L33.209-42.019C31.955-42.019 31.324-41.256 31.324-39.998L31.324-39.001C31.324-37.788 31.955-37.021 33.209-37.021ZM15.028-51.871L78.019-51.871C81.322-51.871 83.281-54.087 83.281-57.342L83.281-63.286C83.281-66.541 81.322-68.757 78.019-68.757L15.028-68.757C11.79-68.757 9.766-66.541 9.766-63.286L9.766-57.342C9.766-54.087 11.77-51.871 15.028-51.871ZM15.116-54.054C13.121-54.054 11.983-55.419 11.983-57.414L11.983-63.256C11.983-65.251 13.121-66.57 15.116-66.57L77.934-66.57C79.929-66.57 81.105-65.251 81.105-63.256L81.105-57.414C81.105-55.419 79.929-54.054 77.934-54.054L15.116-54.054Z"/>
   <path class="monochrome-1 multicolor-1:tintColor hierarchical-1:primary SFSymbolsPreviewWireframe" d="M16.929 15.889C28.613 15.889 38.278 6.27 38.278-5.463C38.278-17.2 28.666-26.812 16.929-26.812C5.238-26.812-4.42-17.154-4.42-5.463C-4.42 6.234 5.235 15.889 16.929 15.889Z"/>
   <path class="monochrome-2 multicolor-2:labelColor hierarchical-2:primary SFSymbolsPreviewWireframe" d="M16.929 12.81C26.938 12.81 35.199 4.556 35.199-5.463C35.199-15.528 26.948-23.779 16.929-23.779C6.91-23.779-1.386-15.482-1.386-5.463C-1.386 4.559 6.91 12.81 16.929 12.81Z"/>
   <path class="monochrome-3 multicolor-3:tintColor hierarchical-3:primary SFSymbolsPreviewWireframe" d="M16.929 6.384C15.96 6.384 15.389 5.767 15.389 4.889L15.389-3.969L6.577-3.969C5.744-3.969 5.037-4.537 5.037-5.463C5.037-6.432 5.744-7 6.577-7L15.389-7L15.389-15.812C15.389-16.6 15.96-17.307 16.929-17.307C17.898-17.307 18.424-16.6 18.424-15.812L18.424-7L27.236-7C28.114-7 28.776-6.432 28.776-5.463C28.776-4.537 28.114-3.969 27.236-3.969L18.424-3.969L18.424 4.889C18.424 5.767 17.898 6.384 16.929 6.384Z"/>
  </g>
 </g>
</svg>
