<?xml version="1.0" encoding="UTF-8"?>
<!--Generator: Apple Native CoreSVG 232.5-->
<!DOCTYPE svg
PUBLIC "-//W3C//DTD SVG 1.1//EN"
       "http://www.w3.org/Graphics/SVG/1.1/DTD/svg11.dtd">
<svg version="1.1" xmlns="http://www.w3.org/2000/svg" xmlns:xlink="http://www.w3.org/1999/xlink" width="3300" height="2200">
 <!--glyph: "", point size: 100.0, font version: "19.2d2e1", template writer version: "128"-->
 <style>.monochrome-0 {-sfsymbols-motion-group:3}
.monochrome-1 {opacity:0.0;-sfsymbols-clear-behind:true;-sfsymbols-motion-group:2}
.monochrome-2 {opacity:0.0;-sfsymbols-clear-behind:true;-sfsymbols-motion-group:1}
.monochrome-3 {-sfsymbols-motion-group:0}
.monochrome-4 {opacity:0.0;-sfsymbols-clear-behind:true;-sfsymbols-motion-group:0}

.multicolor-0:tintColor {-sfsymbols-motion-group:3}
.multicolor-1:tintColor {opacity:0.0;-sfsymbols-clear-behind:true;-sfsymbols-motion-group:2}
.multicolor-2:tintColor {opacity:0.0;-sfsymbols-clear-behind:true;-sfsymbols-motion-group:1}
.multicolor-3:tintColor {-sfsymbols-motion-group:0}
.multicolor-4:tintColor {opacity:0.0;-sfsymbols-clear-behind:true;-sfsymbols-motion-group:0}

.hierarchical-0:primary {-sfsymbols-motion-group:3}
.hierarchical-1:primary {opacity:0.0;-sfsymbols-clear-behind:true;-sfsymbols-motion-group:2}
.hierarchical-2:primary {opacity:0.0;-sfsymbols-clear-behind:true;-sfsymbols-motion-group:1}
.hierarchical-3:primary {-sfsymbols-motion-group:0}
.hierarchical-4:primary {opacity:0.0;-sfsymbols-clear-behind:true;-sfsymbols-motion-group:0}

.SFSymbolsPreviewWireframe {fill:none;opacity:1.0;stroke:black;stroke-width:0.5}
</style>
 <g id="Notes">
  <rect height="2200" id="artboard" style="fill:white;opacity:1" width="3300" x="0" y="0"/>
  <line style="fill:none;stroke:black;opacity:1;stroke-width:0.5;" x1="263" x2="3036" y1="292" y2="292"/>
  <text style="stroke:none;fill:black;font-family:sans-serif;font-size:13;font-weight:bold;" transform="matrix(1 0 0 1 263 322)">Weight/Scale Variations</text>
  <text style="stroke:none;fill:black;font-family:sans-serif;font-size:13;text-anchor:middle;" transform="matrix(1 0 0 1 559.711 322)">Ultralight</text>
  <text style="stroke:none;fill:black;font-family:sans-serif;font-size:13;text-anchor:middle;" transform="matrix(1 0 0 1 856.422 322)">Thin</text>
  <text style="stroke:none;fill:black;font-family:sans-serif;font-size:13;text-anchor:middle;" transform="matrix(1 0 0 1 1153.13 322)">Light</text>
  <text style="stroke:none;fill:black;font-family:sans-serif;font-size:13;text-anchor:middle;" transform="matrix(1 0 0 1 1449.84 322)">Regular</text>
  <text style="stroke:none;fill:black;font-family:sans-serif;font-size:13;text-anchor:middle;" transform="matrix(1 0 0 1 1746.56 322)">Medium</text>
  <text style="stroke:none;fill:black;font-family:sans-serif;font-size:13;text-anchor:middle;" transform="matrix(1 0 0 1 2043.27 322)">Semibold</text>
  <text style="stroke:none;fill:black;font-family:sans-serif;font-size:13;text-anchor:middle;" transform="matrix(1 0 0 1 2339.98 322)">Bold</text>
  <text style="stroke:none;fill:black;font-family:sans-serif;font-size:13;text-anchor:middle;" transform="matrix(1 0 0 1 2636.69 322)">Heavy</text>
  <text style="stroke:none;fill:black;font-family:sans-serif;font-size:13;text-anchor:middle;" transform="matrix(1 0 0 1 2933.4 322)">Black</text>
  <line style="fill:none;stroke:black;opacity:1;stroke-width:0.5;" x1="263" x2="3036" y1="1903" y2="1903"/>
  <g transform="matrix(0.2 0 0 0.2 263 1933)">
   <path d="m46.2402 4.15039c21.5332 0 39.4531-17.8711 39.4531-39.4043s-17.9688-39.4043-39.502-39.4043c-21.4844 0-39.3555 17.8711-39.3555 39.4043s17.9199 39.4043 39.4043 39.4043Zm0-7.42188c-17.7246 0-31.8848-14.209-31.8848-31.9824s14.1113-31.9824 31.8359-31.9824c17.7734 0 32.0312 14.209 32.0312 31.9824s-14.209 31.9824-31.9824 31.9824Zm-17.9688-31.9824c0 2.14844 1.51367 3.61328 3.75977 3.61328h10.498v10.5957c0 2.19727 1.46484 3.71094 3.61328 3.71094 2.24609 0 3.71094-1.51367 3.71094-3.71094v-10.5957h10.5957c2.19727 0 3.71094-1.46484 3.71094-3.61328 0-2.19727-1.51367-3.71094-3.71094-3.71094h-10.5957v-10.5469c0-2.24609-1.46484-3.75977-3.71094-3.75977-2.14844 0-3.61328 1.51367-3.61328 3.75977v10.5469h-10.498c-2.24609 0-3.75977 1.51367-3.75977 3.71094Z"/>
  </g>
  <g transform="matrix(0.2 0 0 0.2 281.506 1933)">
   <path d="m58.5449 14.5508c27.2461 0 49.8047-22.6074 49.8047-49.8047 0-27.2461-22.6074-49.8047-49.8535-49.8047-27.1973 0-49.7559 22.5586-49.7559 49.8047 0 27.1973 22.6074 49.8047 49.8047 49.8047Zm0-8.30078c-23.0469 0-41.4551-18.457-41.4551-41.5039s18.3594-41.5039 41.4062-41.5039 41.5527 18.457 41.5527 41.5039-18.457 41.5039-41.5039 41.5039Zm-22.6562-41.5039c0 2.39258 1.66016 4.00391 4.15039 4.00391h14.3555v14.4043c0 2.44141 1.66016 4.15039 4.05273 4.15039 2.44141 0 4.15039-1.66016 4.15039-4.15039v-14.4043h14.4043c2.44141 0 4.15039-1.61133 4.15039-4.00391 0-2.44141-1.70898-4.15039-4.15039-4.15039h-14.4043v-14.3555c0-2.49023-1.70898-4.19922-4.15039-4.19922-2.39258 0-4.05273 1.70898-4.05273 4.19922v14.3555h-14.3555c-2.49023 0-4.15039 1.70898-4.15039 4.15039Z"/>
  </g>
  <g transform="matrix(0.2 0 0 0.2 304.924 1933)">
   <path d="m74.8535 28.3203c34.8145 0 63.623-28.8086 63.623-63.5742 0-34.8145-28.8574-63.623-63.6719-63.623-34.7656 0-63.5254 28.8086-63.5254 63.623 0 34.7656 28.8086 63.5742 63.5742 63.5742Zm0-9.08203c-30.1758 0-54.4434-24.3164-54.4434-54.4922 0-30.2246 24.2188-54.4922 54.3945-54.4922 30.2246 0 54.541 24.2676 54.541 54.4922 0 30.1758-24.2676 54.4922-54.4922 54.4922Zm-28.8574-54.4922c0 2.58789 1.85547 4.39453 4.58984 4.39453h19.7266v19.7754c0 2.68555 1.85547 4.58984 4.44336 4.58984 2.68555 0 4.54102-1.85547 4.54102-4.58984v-19.7754h19.7754c2.68555 0 4.58984-1.80664 4.58984-4.39453 0-2.73438-1.85547-4.58984-4.58984-4.58984h-19.7754v-19.7266c0-2.73438-1.85547-4.63867-4.54102-4.63867-2.58789 0-4.44336 1.9043-4.44336 4.63867v19.7266h-19.7266c-2.73438 0-4.58984 1.85547-4.58984 4.58984Z"/>
  </g>
  <text style="stroke:none;fill:black;font-family:sans-serif;font-size:13;font-weight:bold;" transform="matrix(1 0 0 1 263 1953)">Design Variations</text>
  <text style="stroke:none;fill:black;font-family:sans-serif;font-size:13;" transform="matrix(1 0 0 1 263 1971)">Symbols are supported in up to nine weights and three scales.</text>
  <text style="stroke:none;fill:black;font-family:sans-serif;font-size:13;" transform="matrix(1 0 0 1 263 1989)">For optimal layout with text and other symbols, vertically align</text>
  <text style="stroke:none;fill:black;font-family:sans-serif;font-size:13;" transform="matrix(1 0 0 1 263 2007)">symbols with the adjacent text.</text>
  <line style="fill:none;stroke:#00AEEF;stroke-width:0.5;opacity:1.0;" x1="776" x2="776" y1="1919" y2="1933"/>
  <g transform="matrix(0.2 0 0 0.2 776 1933)">
   <path d="m16.5527 0.78125c2.58789 0 3.85742-0.976562 4.78516-3.71094l6.29883-17.2363h28.8086l6.29883 17.2363c0.927734 2.73438 2.19727 3.71094 4.73633 3.71094 2.58789 0 4.24805-1.5625 4.24805-4.00391 0-0.830078-0.146484-1.61133-0.537109-2.63672l-22.9004-60.9863c-1.12305-2.97852-3.125-4.49219-6.25-4.49219-3.02734 0-5.07812 1.46484-6.15234 4.44336l-22.9004 61.084c-0.390625 1.02539-0.537109 1.80664-0.537109 2.63672 0 2.44141 1.5625 3.95508 4.10156 3.95508Zm13.4766-28.3691 11.8652-32.8613h0.244141l11.8652 32.8613Z"/>
  </g>
  <line style="fill:none;stroke:#00AEEF;stroke-width:0.5;opacity:1.0;" x1="792.836" x2="792.836" y1="1919" y2="1933"/>
  <text style="stroke:none;fill:black;font-family:sans-serif;font-size:13;font-weight:bold;" transform="matrix(1 0 0 1 776 1953)">Margins</text>
  <text style="stroke:none;fill:black;font-family:sans-serif;font-size:13;" transform="matrix(1 0 0 1 776 1971)">Leading and trailing margins on the left and right side of each symbol</text>
  <text style="stroke:none;fill:black;font-family:sans-serif;font-size:13;" transform="matrix(1 0 0 1 776 1989)">can be adjusted by modifying the x-location of the margin guidelines.</text>
  <text style="stroke:none;fill:black;font-family:sans-serif;font-size:13;" transform="matrix(1 0 0 1 776 2007)">Modifications are automatically applied proportionally to all</text>
  <text style="stroke:none;fill:black;font-family:sans-serif;font-size:13;" transform="matrix(1 0 0 1 776 2025)">scales and weights.</text>
  <g transform="matrix(0.2 0 0 0.2 1289 1933)">
   <path d="m14.209 9.32617 8.49609 8.54492c4.29688 4.3457 9.22852 4.05273 13.8672-1.07422l53.4668-58.9355-4.83398-4.88281-53.0762 58.3984c-1.75781 2.00195-3.41797 2.49023-5.76172 0.146484l-5.85938-5.81055c-2.34375-2.29492-1.80664-4.00391 0.195312-5.81055l57.373-54.0039-4.88281-4.83398-57.959 54.4434c-4.93164 4.58984-5.32227 9.47266-1.02539 13.8184Zm32.0801-90.9668c-2.09961 2.05078-2.24609 4.93164-1.07422 6.88477 1.17188 1.80664 3.4668 2.97852 6.68945 2.14844 7.32422-1.70898 14.9414-2.00195 22.0703 2.68555l-2.92969 7.27539c-1.70898 4.15039-0.830078 7.08008 1.85547 9.81445l11.4746 11.5723c2.44141 2.44141 4.49219 2.53906 7.32422 2.05078l5.32227-0.976562 3.32031 3.36914-0.195312 2.7832c-0.195312 2.49023 0.439453 4.39453 2.88086 6.78711l3.80859 3.71094c2.39258 2.39258 5.46875 2.53906 7.8125 0.195312l14.5508-14.5996c2.34375-2.34375 2.24609-5.32227-0.146484-7.71484l-3.85742-3.80859c-2.39258-2.39258-4.24805-3.17383-6.64062-2.97852l-2.88086 0.244141-3.22266-3.17383 1.2207-5.61523c0.634766-2.83203-0.146484-5.0293-3.07617-7.95898l-10.9863-10.9375c-16.6992-16.6016-38.8672-16.2109-53.3203-1.75781Zm7.4707 1.85547c12.1582-8.88672 28.6133-7.37305 39.7461 3.75977l12.1582 12.0605c1.17188 1.17188 1.36719 2.09961 1.02539 3.80859l-1.61133 7.42188 7.51953 7.42188 4.93164-0.292969c1.26953-0.0488281 1.66016 0.0488281 2.63672 1.02539l2.88086 2.88086-12.207 12.207-2.88086-2.88086c-0.976562-0.976562-1.12305-1.36719-1.07422-2.68555l0.341797-4.88281-7.4707-7.42188-7.61719 1.26953c-1.61133 0.341797-2.34375 0.195312-3.56445-0.976562l-10.0098-10.0098c-1.26953-1.17188-1.41602-2.00195-0.634766-3.85742l4.39453-10.4492c-7.8125-7.27539-17.9688-10.4004-28.125-7.42188-0.78125 0.195312-1.07422-0.439453-0.439453-0.976562Z"/>
  </g>
  <text style="stroke:none;fill:black;font-family:sans-serif;font-size:13;font-weight:bold;" transform="matrix(1 0 0 1 1289 1953)">Exporting</text>
  <text style="stroke:none;fill:black;font-family:sans-serif;font-size:13;" transform="matrix(1 0 0 1 1289 1971)">Symbols should be outlined when exporting to ensure the</text>
  <text style="stroke:none;fill:black;font-family:sans-serif;font-size:13;" transform="matrix(1 0 0 1 1289 1989)">design is preserved when submitting to Xcode.</text>
  <text id="template-version" style="stroke:none;fill:black;font-family:sans-serif;font-size:13;text-anchor:end;" transform="matrix(1 0 0 1 3036 1933)">Template v.5.0</text>
  <text style="stroke:none;fill:black;font-family:sans-serif;font-size:13;text-anchor:end;" transform="matrix(1 0 0 1 3036 1951)">Requires Xcode 15 or greater</text>
  <text id="descriptive-name" style="stroke:none;fill:black;font-family:sans-serif;font-size:13;text-anchor:end;" transform="matrix(1 0 0 1 3036 1969)">Generated from batteryblock 2</text>
  <text style="stroke:none;fill:black;font-family:sans-serif;font-size:13;text-anchor:end;" transform="matrix(1 0 0 1 3036 1987)">Typeset at 100.0 points</text>
  <text style="stroke:none;fill:black;font-family:sans-serif;font-size:13;" transform="matrix(1 0 0 1 263 726)">Small</text>
  <text style="stroke:none;fill:black;font-family:sans-serif;font-size:13;" transform="matrix(1 0 0 1 263 1156)">Medium</text>
  <text style="stroke:none;fill:black;font-family:sans-serif;font-size:13;" transform="matrix(1 0 0 1 263 1586)">Large</text>
 </g>
 <g id="Guides">
  <g id="H-reference" style="fill:#27AAE1;stroke:none;" transform="matrix(1 0 0 1 339 696)">
   <path d="M0.993654 0L3.63775 0L29.3281-67.1323L30.0303-67.1323L30.0303-70.459L28.1226-70.459ZM11.6885-24.4799L46.9815-24.4799L46.2315-26.7285L12.4385-26.7285ZM55.1196 0L57.7637 0L30.6382-70.459L29.4326-70.459L29.4326-67.1323Z"/>
  </g>
  <line id="Baseline-S" style="fill:none;stroke:#27AAE1;opacity:1;stroke-width:0.5;" x1="263" x2="3036" y1="696" y2="696"/>
  <line id="Capline-S" style="fill:none;stroke:#27AAE1;opacity:1;stroke-width:0.5;" x1="263" x2="3036" y1="625.541" y2="625.541"/>
  <g id="H-reference" style="fill:#27AAE1;stroke:none;" transform="matrix(1 0 0 1 339 1126)">
   <path d="M0.993654 0L3.63775 0L29.3281-67.1323L30.0303-67.1323L30.0303-70.459L28.1226-70.459ZM11.6885-24.4799L46.9815-24.4799L46.2315-26.7285L12.4385-26.7285ZM55.1196 0L57.7637 0L30.6382-70.459L29.4326-70.459L29.4326-67.1323Z"/>
  </g>
  <line id="Baseline-M" style="fill:none;stroke:#27AAE1;opacity:1;stroke-width:0.5;" x1="263" x2="3036" y1="1126" y2="1126"/>
  <line id="Capline-M" style="fill:none;stroke:#27AAE1;opacity:1;stroke-width:0.5;" x1="263" x2="3036" y1="1055.54" y2="1055.54"/>
  <g id="H-reference" style="fill:#27AAE1;stroke:none;" transform="matrix(1 0 0 1 339 1556)">
   <path d="M0.993654 0L3.63775 0L29.3281-67.1323L30.0303-67.1323L30.0303-70.459L28.1226-70.459ZM11.6885-24.4799L46.9815-24.4799L46.2315-26.7285L12.4385-26.7285ZM55.1196 0L57.7637 0L30.6382-70.459L29.4326-70.459L29.4326-67.1323Z"/>
  </g>
  <line id="Baseline-L" style="fill:none;stroke:#27AAE1;opacity:1;stroke-width:0.5;" x1="263" x2="3036" y1="1556" y2="1556"/>
  <line id="Capline-L" style="fill:none;stroke:#27AAE1;opacity:1;stroke-width:0.5;" x1="263" x2="3036" y1="1485.54" y2="1485.54"/>
  <line id="left-margin-Ultralight-S" style="fill:none;stroke:#FF3B30;stroke-width:0.5;opacity:1.0;" x1="505.702" x2="505.702" y1="600.785" y2="720.121"/>
  <line id="right-margin-Ultralight-S" style="fill:none;stroke:#00AEEF;stroke-width:0.5;opacity:1.0;" x1="613.72" x2="613.72" y1="600.785" y2="720.121"/>
  <line id="left-margin-Regular-S" style="fill:none;stroke:#FF3B30;stroke-width:0.5;opacity:1.0;" x1="1394.79" x2="1394.79" y1="600.785" y2="720.121"/>
  <line id="right-margin-Regular-S" style="fill:none;stroke:#00AEEF;stroke-width:0.5;opacity:1.0;" x1="1504.9" x2="1504.9" y1="600.785" y2="720.121"/>
  <line id="left-margin-Black-S" style="fill:none;stroke:#FF3B30;stroke-width:0.5;opacity:1.0;" x1="2877.35" x2="2877.35" y1="600.785" y2="720.121"/>
  <line id="right-margin-Black-S" style="fill:none;stroke:#FF3B30;stroke-width:0.5;opacity:1.0;" x1="2989.45" x2="2989.45" y1="600.785" y2="720.121"/>
 </g>
 <g id="Symbols">
  <g id="Black-S" transform="matrix(1 0 0 1 2877.35 696)">
   <path class="SFSymbolsPreviewWireframe" d="M15.93-18.6L15.93-48.678C15.93-51.119 17-51.998 19.25-51.998L76.86-51.998C79.11-51.998 80.18-51.119 80.18-48.678L80.18-18.6C80.18-16.158 79.11-15.279 76.86-15.279L19.25-15.279C17-15.279 15.93-16.158 15.93-18.6Z"/>
   <path class="monochrome-0 multicolor-0:tintColor hierarchical-0:primary SFSymbolsPreviewWireframe" d="M35-5.119L97.11-5.119C106.68-5.119 112.34-10.783 112.34-20.353L112.34-54.924C112.34-64.494 106.68-70.158 97.11-70.158L94.18-70.158L94.18-73.478C94.18-78.459 91.3-81.389 86.37-81.389L78.55-81.389C73.62-81.389 70.74-78.459 70.74-73.478L70.74-70.158L61.37-70.158L61.37-73.478C61.37-78.459 58.49-81.389 53.55-81.389L45.74-81.389C40.81-81.389 37.93-78.459 37.93-73.478L37.93-70.158L35-70.158C25.43-70.158 19.77-64.494 19.77-54.924L19.77-20.353C19.77-10.783 25.43-5.119 35-5.119Z"/>
   <path class="monochrome-1 multicolor-1:tintColor hierarchical-1:primary SFSymbolsPreviewWireframe" d="M17-1.119L79.11-1.119C88.68-1.119 94.34-6.783 94.34-16.353L94.34-50.924C94.34-60.494 88.68-66.158 79.11-66.158L76.18-66.158L76.18-69.478C76.18-74.459 73.3-77.389 68.37-77.389L60.55-77.389C55.62-77.389 52.74-74.459 52.74-69.478L52.74-66.158L43.37-66.158L43.37-69.478C43.37-74.459 40.49-77.389 35.55-77.389L27.74-77.389C22.81-77.389 19.93-74.459 19.93-69.478L19.93-66.158L17-66.158C7.43-66.158 1.77-60.494 1.77-50.924L1.77-16.353C1.77-6.783 7.43-1.119 17-1.119Z"/>
   <path class="monochrome-2 multicolor-2:tintColor hierarchical-2:primary SFSymbolsPreviewWireframe" d="M33.93-22.6L33.93-52.678C33.93-55.119 35-55.998 37.25-55.998L94.86-55.998C97.11-55.998 98.18-55.119 98.18-52.678L98.18-22.6C98.18-20.158 97.11-19.279 94.86-19.279L37.25-19.279C35-19.279 33.93-20.158 33.93-22.6Z"/>
   <path class="monochrome-3 multicolor-3:tintColor hierarchical-3:primary SFSymbolsPreviewWireframe" d="M13 2.881L75.11 2.881C84.68 2.881 90.34-2.783 90.34-12.353L90.34-46.924C90.34-56.494 84.68-62.158 75.11-62.158L72.18-62.158L72.18-65.478C72.18-70.459 69.3-73.389 64.37-73.389L56.55-73.389C51.62-73.389 48.74-70.459 48.74-65.478L48.74-62.158L39.37-62.158L39.37-65.478C39.37-70.459 36.49-73.389 31.55-73.389L23.74-73.389C18.81-73.389 15.93-70.459 15.93-65.478L15.93-62.158L13-62.158C3.43-62.158-2.23-56.494-2.23-46.924L-2.23-12.353C-2.23-2.783 3.43 2.881 13 2.881Z"/>
   <path class="monochrome-4 multicolor-4:tintColor hierarchical-4:primary SFSymbolsPreviewWireframe" d="M11.93-14.6L11.93-44.678C11.93-47.119 13-47.998 15.25-47.998L72.86-47.998C75.11-47.998 76.18-47.119 76.18-44.678L76.18-14.6C76.18-12.158 75.11-11.279 72.86-11.279L15.25-11.279C13-11.279 11.93-12.158 11.93-14.6Z"/>
  </g>
  <g id="Regular-S" transform="matrix(1 0 0 1 1394.79 696)">
   <path class="SFSymbolsPreviewWireframe" d="M9.8-15.305L9.8-51.438C9.8-55.1 11.8-57.004 15.31-57.004L80.79-57.004C84.31-57.004 86.31-55.1 86.31-51.438L86.31-15.305C86.31-11.643 84.31-9.738 80.79-9.738L15.31-9.738C11.8-9.738 9.8-11.643 9.8-15.305Z"/>
   <path class="monochrome-0 multicolor-0:tintColor hierarchical-0:primary SFSymbolsPreviewWireframe" d="M25.22-5.658L90.89-5.658C99.24-5.658 103.34-9.76 103.34-17.963L103.34-54.779C103.34-62.982 99.24-67.084 90.89-67.084L85.91-67.084L85.91-71.918C85.91-74.994 84.15-76.85 81.13-76.85L70.24-76.85C67.21-76.85 65.4-74.994 65.4-71.918L65.4-67.084L50.71-67.084L50.71-71.918C50.71-74.994 48.95-76.85 45.87-76.85L35.03-76.85C32-76.85 30.2-74.994 30.2-71.918L30.2-67.084L25.22-67.084C16.92-67.084 12.77-62.982 12.77-54.779L12.77-17.963C12.77-9.76 16.92-5.658 25.22-5.658Z"/>
   <path class="monochrome-1 multicolor-1:tintColor hierarchical-1:primary SFSymbolsPreviewWireframe" d="M15.22-2.658L80.89-2.658C89.24-2.658 93.34-6.76 93.34-14.963L93.34-51.779C93.34-59.982 89.24-64.084 80.89-64.084L75.91-64.084L75.91-68.918C75.91-71.994 74.15-73.85 71.13-73.85L60.24-73.85C57.21-73.85 55.4-71.994 55.4-68.918L55.4-64.084L40.71-64.084L40.71-68.918C40.71-71.994 38.95-73.85 35.87-73.85L25.03-73.85C22-73.85 20.2-71.994 20.2-68.918L20.2-64.084L15.22-64.084C6.92-64.084 2.77-59.982 2.77-51.779L2.77-14.963C2.77-6.76 6.92-2.658 15.22-2.658Z"/>
   <path class="monochrome-2 multicolor-2:tintColor hierarchical-2:primary SFSymbolsPreviewWireframe" d="M19.8-18.305L19.8-54.438C19.8-58.1 21.8-60.004 25.31-60.004L90.79-60.004C94.31-60.004 96.31-58.1 96.31-54.438L96.31-18.305C96.31-14.643 94.31-12.738 90.79-12.738L25.31-12.738C21.8-12.738 19.8-14.643 19.8-18.305Z"/>
   <path class="monochrome-3 multicolor-3:tintColor hierarchical-3:primary SFSymbolsPreviewWireframe" d="M12.22 0.342L77.89 0.342C86.24 0.342 90.34-3.76 90.34-11.963L90.34-48.779C90.34-56.982 86.24-61.084 77.89-61.084L72.91-61.084L72.91-65.918C72.91-68.994 71.15-70.85 68.13-70.85L57.24-70.85C54.21-70.85 52.4-68.994 52.4-65.918L52.4-61.084L37.71-61.084L37.71-65.918C37.71-68.994 35.95-70.85 32.87-70.85L22.03-70.85C19-70.85 17.2-68.994 17.2-65.918L17.2-61.084L12.22-61.084C3.92-61.084-0.23-56.982-0.23-48.779L-0.23-11.963C-0.23-3.76 3.92 0.342 12.22 0.342Z"/>
   <path class="monochrome-4 multicolor-4:tintColor hierarchical-4:primary SFSymbolsPreviewWireframe" d="M6.8-12.305L6.8-48.438C6.8-52.1 8.8-54.004 12.31-54.004L77.79-54.004C81.31-54.004 83.31-52.1 83.31-48.438L83.31-12.305C83.31-8.643 81.31-6.738 77.79-6.738L12.31-6.738C8.8-6.738 6.8-8.643 6.8-12.305Z"/>
  </g>
  <g id="Ultralight-S" transform="matrix(1 0 0 1 505.702 696)">
   <path class="SFSymbolsPreviewWireframe" d="M5.983-13.76L5.983-50.982C5.983-56.188 8.666-58.865 13.862-58.865L82.156-58.865C87.17-58.865 90.035-56.188 90.035-50.982L90.035-13.76C90.035-8.554 87.17-5.877 82.156-5.877L13.862-5.877C8.666-5.877 5.983-8.554 5.983-13.76Z"/>
   <path class="monochrome-0 multicolor-0:tintColor hierarchical-0:primary SFSymbolsPreviewWireframe" d="M26.765-6.656L95.254-6.656C101.787-6.656 105.253-10.213 105.253-16.645L105.253-54.097C105.253-60.529 101.787-64.086 95.254-64.086L88.502-64.086L88.502-70.282C88.502-72.496 87.29-73.852 84.807-73.852L71.739-73.852C69.256-73.852 67.995-72.496 67.995-70.282L67.995-64.086L54.024-64.086L54.024-70.282C54.024-72.496 52.766-73.852 50.28-73.852L37.215-73.852C34.732-73.852 33.516-72.496 33.516-70.282L33.516-64.086L26.765-64.086C20.235-64.086 16.766-60.62 16.766-54.097L16.766-16.645C16.766-10.122 20.235-6.656 26.765-6.656Z"/>
   <path class="monochrome-1 multicolor-1:tintColor hierarchical-1:primary SFSymbolsPreviewWireframe" d="M13.765-3.656L82.254-3.656C88.787-3.656 92.253-7.213 92.253-13.645L92.253-51.097C92.253-57.529 88.787-61.086 82.254-61.086L75.502-61.086L75.502-67.282C75.502-69.496 74.29-70.852 71.807-70.852L58.739-70.852C56.256-70.852 54.995-69.496 54.995-67.282L54.995-61.086L41.024-61.086L41.024-67.282C41.024-69.496 39.766-70.852 37.28-70.852L24.215-70.852C21.732-70.852 20.516-69.496 20.516-67.282L20.516-61.086L13.765-61.086C7.235-61.086 3.766-57.62 3.766-51.097L3.766-13.645C3.766-7.122 7.235-3.656 13.765-3.656Z"/>
   <path class="monochrome-2 multicolor-2:tintColor hierarchical-2:primary SFSymbolsPreviewWireframe" d="M18.983-16.76L18.983-53.982C18.983-59.188 21.666-61.865 26.862-61.865L95.156-61.865C100.17-61.865 103.035-59.188 103.035-53.982L103.035-16.76C103.035-11.554 100.17-8.877 95.156-8.877L26.862-8.877C21.666-8.877 18.983-11.554 18.983-16.76Z"/>
   <path class="monochrome-3 multicolor-3:tintColor hierarchical-3:primary SFSymbolsPreviewWireframe" d="M9.765-0.656L78.254-0.656C84.787-0.656 88.253-4.213 88.253-10.645L88.253-48.097C88.253-54.529 84.787-58.086 78.254-58.086L71.502-58.086L71.502-64.282C71.502-66.496 70.29-67.852 67.807-67.852L54.739-67.852C52.256-67.852 50.995-66.496 50.995-64.282L50.995-58.086L37.024-58.086L37.024-64.282C37.024-66.496 35.766-67.852 33.28-67.852L20.215-67.852C17.732-67.852 16.516-66.496 16.516-64.282L16.516-58.086L9.765-58.086C3.235-58.086-0.234-54.62-0.234-48.097L-0.234-10.645C-0.234-4.122 3.235-0.656 9.765-0.656Z"/>
   <path class="monochrome-4 multicolor-4:tintColor hierarchical-4:primary SFSymbolsPreviewWireframe" d="M1.983-10.76L1.983-47.982C1.983-53.188 4.666-55.865 9.862-55.865L78.156-55.865C83.17-55.865 86.035-53.188 86.035-47.982L86.035-10.76C86.035-5.554 83.17-2.877 78.156-2.877L9.862-2.877C4.666-2.877 1.983-5.554 1.983-10.76Z"/>
  </g>
 </g>
</svg>
